<?xml version="1.0" encoding="UTF-8"?>
<svg width="20px" height="20px" viewBox="0 0 20 20" version="1.1" xmlns="http://www.w3.org/2000/svg" xmlns:xlink="http://www.w3.org/1999/xlink">
    <title>Combined Shape Copy</title>
    <g id="Components" stroke="none" stroke-width="1" fill="none" fill-rule="evenodd">
        <g id="Gallery---Exercise---Hover" transform="translate(-150.000000, -8.000000)" fill="#FFFFFF">
            <path d="M160,8 C165.522847,8 170,12.4771525 170,18 C170,23.5228475 165.522847,28 160,28 C154.477153,28 150,23.5228475 150,18 C150,12.4771525 154.477153,8 160,8 Z M160,12.5 L159.85554,12.5068666 L159.714965,12.5270472 C159.022851,12.6601881 158.5,13.2690349 158.5,14 L158.5,14 L158.5,16.5 L156,16.5 L155.85554,16.5068666 C155.094888,16.5795513 154.5,17.2203039 154.5,18 L154.5,18 L154.506867,18.14446 C154.579551,18.9051119 155.220304,19.5 156,19.5 L156,19.5 L158.5,19.5 L158.5,22 L158.506867,22.14446 C158.579551,22.9051119 159.220304,23.5 160,23.5 L160,23.5 L160.14446,23.4931334 C160.905112,23.4204487 161.5,22.7796961 161.5,22 L161.5,22 L161.5,19.5 L164,19.5 L164.14446,19.4931334 C164.905112,19.4204487 165.5,18.7796961 165.5,18 L165.5,18 L165.493133,17.85554 C165.420449,17.0948881 164.779696,16.5 164,16.5 L164,16.5 L161.5,16.5 L161.5,14 L161.493133,13.85554 C161.420449,13.0948881 160.779696,12.5 160,12.5 L160,12.5 Z" id="Combined-Shape-Copy"></path>
        </g>
    </g>
</svg>