<?xml version="1.0" encoding="UTF-8"?>
<svg width="16px" height="20px" viewBox="0 0 16 20" version="1.1" xmlns="http://www.w3.org/2000/svg" xmlns:xlink="http://www.w3.org/1999/xlink">
    <title>Break</title>
    <g id="Design" stroke="none" stroke-width="1" fill="none" fill-rule="evenodd" opacity="0.2">
        <g id="Customization" transform="translate(-336.000000, -385.000000)" fill="#000000">
            <g id="achivements/upload-time" transform="translate(332.000000, 383.000000)">
                <path d="M15,2 C15.5522847,2 16,2.44771525 16,3 L16,4 C16,4.55228475 15.5522847,5 15,5 L14,5 C13.7238576,5 13.5,5.22385763 13.5,5.5 C13.5,5.8006102 13.6854111,6.0700746 13.9661769,6.17748515 C14.4189675,6.35073694 14.7670932,6.48684125 15.0105541,6.58579805 C17.9367925,7.77519302 20,10.6466525 20,14 C20,18.418278 16.418278,22 12,22 C7.581722,22 4,18.418278 4,14 C4,10.6388277 6.07284754,7.7617948 9.0099447,6.57749934 C9.24912557,6.4810569 9.59041849,6.34786206 10.0338234,6.17791482 C10.3146169,6.07029668 10.5,5.80071018 10.5,5.5 C10.5,5.22385763 10.2761424,5 10,5 L9,5 C8.44771525,5 8,4.55228475 8,4 L8,3 C8,2.44771525 8.44771525,2 9,2 L15,2 Z M12,10 C11.4477153,10 11,10.4477153 11,11 L11,11 L11,13 L9,13 C8.44771525,13 8,13.4477153 8,14 C8,14.5522847 8.44771525,15 9,15 L9,15 L10.999,15 L11,17 C11,17.5522847 11.4477153,18 12,18 C12.5522847,18 13,17.5522847 13,17 L13,17 L13,15 L15,15 C15.5522847,15 16,14.5522847 16,14 C16,13.4477153 15.5522847,13 15,13 L15,13 L13,13 L13,11 C13,10.4477153 12.5522847,10 12,10 Z" id="Combined-Shape"></path>
            </g>
        </g>
    </g>
</svg>