<?xml version="1.0" encoding="UTF-8"?>
<svg width="16px" height="20px" viewBox="0 0 16 20" version="1.1" xmlns="http://www.w3.org/2000/svg" xmlns:xlink="http://www.w3.org/1999/xlink">
    <title>universal/delete</title>
    <g id="Components" stroke="none" stroke-width="1" fill="none" fill-rule="evenodd" opacity="0.3">
        <g id="Exercise---Hover" transform="translate(-364.000000, -20.000000)" fill="#131313">
            <g id="universal/delete" transform="translate(360.000000, 18.000000)">
                <path d="M18,9 C18.5522847,9 19,9.44771525 19,10 L19,20 C19,21.1045695 18.1045695,22 17,22 L7,22 C5.8954305,22 5,21.1045695 5,20 L5,10 C5,9.44771525 5.44771525,9 6,9 L18,9 Z M9,12 C8.44771525,12 8,12.4477153 8,13 L8,18 C8,18.5522847 8.44771525,19 9,19 C9.55228475,19 10,18.5522847 10,18 L10,13 C10,12.4477153 9.55228475,12 9,12 Z M15,12 C14.4477153,12 14,12.4477153 14,13 L14,18 C14,18.5522847 14.4477153,19 15,19 C15.5522847,19 16,18.5522847 16,18 L16,13 C16,12.4477153 15.5522847,12 15,12 Z M13,2 C13.5522847,2 14,2.44771525 14,3 L14,4 L18.5,4 C19.3284271,4 20,4.67157288 20,5.5 C20,6.32842712 19.3284271,7 18.5,7 L5.5,7 C4.67157288,7 4,6.32842712 4,5.5 C4,4.67157288 4.67157288,4 5.5,4 L10,4 L10,3 C10,2.44771525 10.4477153,2 11,2 L13,2 Z" id="Combined-Shape"></path>
            </g>
        </g>
    </g>
</svg>